<?xml version="1.0" encoding="UTF-8"?>
<svg xmlns="http://www.w3.org/2000/svg" width="390" height="844" viewBox="0 0 390 844" role="img" aria-labelledby="title desc">
  <title id="title">UPDATED Voice  hold hotkey search</title>
  <desc id="desc">Search tab active, hold hotkey waveform, primary rate 1/5, recent query history.</desc>
  <defs>
    <linearGradient id="glassRail" x1="0%" y1="0%" x2="100%" y2="0%">
      <stop offset="0%" stop-color="#ffffff" stop-opacity="0.82"/>
      <stop offset="100%" stop-color="#f7f8f6" stop-opacity="0.68"/>
    </linearGradient>
    <linearGradient id="glassFrame" x1="0%" y1="0%" x2="0%" y2="100%">
      <stop offset="0%" stop-color="#ffffff" stop-opacity="0.78"/>
      <stop offset="100%" stop-color="#f7f8f6" stop-opacity="0.72"/>
    </linearGradient>
  </defs>
  <rect width="390" height="844" fill="#eef1ef"/>
  <rect x="12" y="56" width="52" height="732" rx="20" fill="url(#glassRail)" stroke="#d6dbd7" stroke-width="0.5"/>
  <g stroke="#5c6663" stroke-width="1.75" fill="none" stroke-linecap="round" stroke-linejoin="round">
    <g transform="translate(29,92)"><path d="M4 12c0-4 3.5-7 8-7s8 3 8 7-3.5 7-8 7c-1.2 0-2.3-.2-3.3-.6L4 20v-4.5C4.3 13.8 4 12.9 4 12z"/><path d="M8 11h8M8 14h5"/></g>
    <rect x="20" y="136" width="36" height="36" rx="10" fill="#ffffff" fill-opacity="0.55" stroke="#d6dbd7" stroke-width="0.5"/>
    <g transform="translate(29,145)" stroke="#16211f"><circle cx="11" cy="11" r="6"/><path d="M16 16l5 5"/></g>
    <g transform="translate(29,200)"><circle cx="12" cy="12" r="8"/><path d="M12 7v5l3 2"/></g>
    <g transform="translate(29,728)"><circle cx="12" cy="12" r="3"/><path d="M12 2v2M12 20v2M4.9 4.9l1.4 1.4M17.7 17.7l1.4 1.4M2 12h2M20 12h2"/></g>
  </g>
  <rect x="76" y="16" width="302" height="812" rx="16" fill="url(#glassFrame)" stroke="#d6dbd7" stroke-width="0.5"/>
  <rect x="76" y="60" width="302" height="768" fill="#f7f8f6"/>
  <text x="92" y="92" font-family="Consolas,monospace" font-size="11" font-weight="600" letter-spacing="0.06em" fill="#5c6663">HOLD HOTKEY</text>
  <text x="92" y="120" font-family="Segoe UI,sans-serif" font-size="15" font-weight="600" fill="#16211f">Cyprus annual return</text>
  <!-- waveform -->
  <polyline points="92,148 96,132 100,152 104,128 108,144 112,124 116,148 120,136 124,152 128,130 132,146 136,128 140,150 144,134 148,152 152,138 156,148 160,126 164,144 168,132 172,150 176,140 180,152 184,128 188,146 192,136 196,150 200,130 204,148 208,138 212,152 216,134 220,146 224,128 228,150 232,140 236,152 240,132 244,148 248,136 252,152 256,126 260,144 264,134 268,150 272,138 276,152 280,128 284,146 288,136 292,150 296,130 300,148 304,140 308,152 312,134 316,146 320,128 324,150 328,138 332,152 336,132 340,148 344,136 348,152 352,130 356,146 360,138" fill="none" stroke="#5c6663" stroke-width="2" stroke-linecap="round" stroke-linejoin="round"/>
  <text x="92" y="168" font-family="Consolas,monospace" font-size="11" fill="#5c6663">Primary-source rate</text>
  <text x="92" y="198" font-family="Georgia,serif" font-size="22" fill="#16211f">1 / 5</text>
  <!-- recent history -->
  <line x1="92" y1="220" x2="362" y2="220" stroke="#d6dbd7" stroke-width="0.5"/>
  <text x="92" y="244" font-family="Consolas,monospace" font-size="11" letter-spacing="0.08em" fill="#5c6663">RECENT</text>
  <text x="318" y="244" font-family="Segoe UI,sans-serif" font-size="12" fill="#5c6663" text-decoration="underline">Clear</text>
  <rect x="92" y="256" width="270" height="52" rx="2" fill="#ffffff" stroke="#d6dbd7" stroke-width="0.5"/>
  <text x="104" y="278" font-family="Segoe UI,sans-serif" font-size="14" fill="#16211f">Cyprus annual return</text>
  <text x="104" y="298" font-family="Consolas,monospace" font-size="11" fill="#5c6663">agree &#183; primary 1/5 &#183; Aug 22</text>
  <rect x="92" y="316" width="270" height="52" rx="2" fill="#ffffff" stroke="#d6dbd7" stroke-width="0.5"/>
  <text x="104" y="338" font-family="Segoe UI,sans-serif" font-size="14" fill="#16211f">HE32 filing deadline</text>
  <text x="104" y="358" font-family="Consolas,monospace" font-size="11" fill="#5c6663">CONTESTED &#183; primary 0/4 &#183; Aug 21</text>
  <rect x="92" y="776" width="200" height="22" rx="4" fill="#ffffff" stroke="#d6dbd7" stroke-width="0.5"/>
  <text x="104" y="791" font-family="Consolas,monospace" font-size="10" fill="#5c6663">EU-hosted &#183; GDPR-aligned</text>
</svg>
